<?xml version="1.0" standalone="no"?>
<!DOCTYPE svg PUBLIC "-//W3C//DTD SVG 20010904//EN"
 "http://www.w3.org/TR/2001/REC-SVG-20010904/DTD/svg10.dtd">
<svg version="1.0" xmlns="http://www.w3.org/2000/svg"
 width="84.000000pt" height="84.000000pt" viewBox="0 0 84.000000 84.000000"
 preserveAspectRatio="xMidYMid meet">

<g transform="translate(0.000000,84.000000) scale(0.100000,-0.100000)"
fill="#000000" stroke="none">
<path d="M359 747 c-116 -61 -142 -205 -56 -303 78 -90 198 -93 282 -9 103
102 69 263 -67 319 -53 22 -108 20 -159 -7z m148 -18 c44 -16 90 -67 103 -113
43 -156 -146 -279 -267 -173 -20 17 -42 46 -49 64 -56 134 78 273 213 222z"/>
<path d="M440 676 c0 -8 -9 -17 -19 -21 -22 -7 -36 -38 -26 -55 4 -6 24 -19
46 -31 52 -26 46 -44 -15 -42 -52 1 -61 -13 -16 -28 17 -6 30 -17 30 -25 0 -8
5 -14 10 -14 6 0 10 5 10 11 0 7 11 22 24 34 33 31 24 60 -25 86 -52 26 -49
39 7 39 32 0 44 4 42 13 -3 6 -14 13 -26 15 -12 2 -22 10 -22 18 0 8 -4 14
-10 14 -5 0 -10 -6 -10 -14z"/>
<path d="M495 343 l-59 -37 -60 24 c-103 40 -128 36 -229 -44 -48 -38 -87 -75
-87 -83 0 -20 9 -16 54 20 96 79 139 107 161 107 33 0 246 -91 252 -107 3 -8
1 -19 -6 -26 -8 -8 -32 -2 -93 21 -75 29 -106 33 -93 12 2 -4 41 -22 84 -40
86 -34 115 -34 132 3 11 25 147 117 172 117 10 0 17 -8 17 -20 0 -29 -214
-179 -256 -180 -16 0 -68 11 -115 25 -113 33 -140 32 -184 -6 -56 -49 -40 -72
17 -24 37 31 61 31 167 0 135 -40 127 -42 291 73 36 25 75 54 88 65 42 38 19
97 -39 97 -16 0 -29 4 -29 9 0 16 -38 23 -59 12 -14 -8 -22 -7 -31 4 -18 22
-29 19 -95 -22z m79 -1 c7 -12 -82 -65 -95 -57 -6 5 6 19 33 36 46 31 54 34
62 21z m86 -16 c0 -14 -90 -76 -110 -76 -28 0 -14 23 32 55 57 38 78 43 78 21z"/>
</g>
</svg>
